<?xml version="1.0" standalone="no"?>
<!DOCTYPE svg PUBLIC "-//W3C//DTD SVG 20010904//EN"
 "http://www.w3.org/TR/2001/REC-SVG-20010904/DTD/svg10.dtd">
<svg version="1.0" xmlns="http://www.w3.org/2000/svg"
 width="225.000000pt" height="225.000000pt" viewBox="0 0 225.000000 225.000000"
 preserveAspectRatio="xMidYMid meet">
<metadata>
Created by potrace 1.16, written by Peter Selinger 2001-2019
</metadata>
<g transform="translate(0.000000,225.000000) scale(0.100000,-0.100000)"
fill="#000000" stroke="none">
<path d="M0 1860 l0 -390 35 0 c22 0 43 -8 55 -20 34 -34 178 -18 208 23 10
13 17 15 26 8 9 -7 16 -7 24 1 17 17 15 28 -4 21 -14 -5 -14 -3 -2 16 10 17
14 18 16 6 2 -8 7 -15 11 -15 4 0 -3 -22 -16 -48 -20 -42 -29 -94 -24 -149 1
-17 54 -43 86 -43 47 0 45 -27 -12 -165 -30 -72 -40 -93 -58 -124 -19 -34 -93
-99 -136 -122 -21 -10 -47 -30 -58 -45 -22 -28 -28 -78 -11 -89 6 -3 10 -14
10 -24 0 -14 -15 -22 -58 -35 -32 -9 -66 -16 -75 -16 -16 0 -17 -27 -17 -325
l0 -325 1125 0 1125 0 0 1125 0 1125 -536 0 -537 0 7 -61 c15 -131 17 -261 4
-256 -7 2 -21 0 -30 -5 -11 -5 -18 -5 -18 1 0 5 7 12 16 15 13 5 8 13 -25 36
-22 17 -43 30 -47 30 -3 0 -21 12 -39 26 -19 14 -35 24 -37 23 -2 -2 -15 5
-31 15 -27 18 -28 18 -48 0 -12 -11 -35 -20 -53 -21 -96 -5 -99 -6 -143 -50
-24 -25 -43 -51 -43 -58 0 -7 -6 -18 -14 -24 -11 -9 -19 -4 -41 24 -24 32 -26
42 -22 93 9 98 18 136 29 121 6 -10 7 -7 3 9 -4 14 -1 28 9 38 9 8 16 22 16
30 0 12 -51 14 -335 14 l-335 0 0 -390z m1318 -730 c40 -23 69 -46 66 -51 -3
-5 1 -9 8 -9 9 0 9 -3 -2 -10 -8 -5 -10 -10 -4 -10 6 0 14 -12 17 -28 4 -20
15 -31 39 -39 40 -15 98 -14 98 1 0 6 5 5 12 -2 7 -7 20 -12 29 -12 9 0 19 -7
23 -15 6 -17 87 -55 116 -55 10 0 21 -4 24 -8 5 -9 23 -244 29 -397 l4 -80
-58 0 c-65 0 -69 4 -75 68 -2 21 -8 46 -13 55 -9 15 -10 14 -11 -5 0 -13 -4
-23 -10 -23 -5 0 -10 20 -10 45 l0 45 -39 0 c-22 0 -41 5 -44 13 -2 6 -8 0
-12 -15 -8 -31 -20 -36 -33 -12 -10 19 -28 22 -117 23 l-71 1 -12 33 c-14 40
-15 67 -3 67 5 0 7 10 3 22 -5 21 -6 21 -14 2 -5 -12 -7 2 -5 39 3 39 -1 61
-10 68 -7 6 -13 19 -13 27 0 13 3 12 14 -4 8 -11 18 -15 23 -10 4 5 2 11 -5
13 -9 4 -11 18 -6 54 5 38 4 49 -7 49 -12 0 -12 2 -1 9 11 7 11 9 -2 14 -16 6
-23 47 -8 47 10 0 9 54 -2 62 -5 3 -2 13 7 23 21 20 21 26 2 19 -8 -4 -15 -11
-15 -18 -1 -6 -9 0 -20 13 -46 54 10 50 108 -9z"/>
</g>
</svg>
