 <svg version="1.0" xmlns="http://www.w3.org/2000/svg" width="700.000000pt" height="560.000000pt" viewBox="0 0 700.000000 560.000000" preserveAspectRatio="xMidYMid meet">
<metadata>
Created by potrace 1.12, written by Peter Selinger 2001-2015
</metadata>
<g transform="translate(0.000000,560.000000) scale(0.100000,-0.100000)" fill="#000000" stroke="none">
<path d="M2984 4541 c-573 -104 -967 -548 -1123 -1266 -35 -160 -44 -275 -38
-468 8 -234 38 -367 131 -571 35 -77 37 -85 51 -280 8 -111 19 -286 25 -391
13 -228 24 -309 44 -340 25 -38 198 -147 212 -133 9 9 -14 119 -74 358 l-57
225 1 172 c2 219 3 223 52 223 l38 0 0 -144 -1 -144 30 -43 c17 -24 48 -54 70
-66 59 -33 192 -55 375 -60 249 -8 334 21 459 153 78 81 123 165 142 262 8 46
18 66 33 74 24 14 212 17 267 5 36 -7 37 -9 49 -72 20 -108 70 -197 158 -285
82 -82 136 -110 252 -132 112 -21 427 4 547 43 41 13 96 74 118 132 15 40 16
61 8 157 -8 104 -7 112 10 122 32 17 64 2 71 -33 3 -17 6 -107 6 -199 0 -167
0 -168 -49 -366 -58 -233 -86 -372 -78 -380 11 -11 147 70 188 112 l42 43 8
103 c4 57 15 209 24 338 29 446 33 477 64 539 147 295 178 615 91 968 -70 287
-166 517 -301 718 -130 194 -276 325 -464 417 -144 70 -267 99 -440 105 -156
6 -230 -4 -312 -42 l-54 -24 -17 31 c-31 57 -73 97 -130 125 -53 26 -67 28
-192 30 -96 2 -164 -3 -236 -16z m679 -721 c99 -31 340 -214 421 -320 83 -109
126 -242 126 -395 1 -90 2 -97 14 -75 29 53 48 163 44 258 -2 50 1 92 5 92 12
0 60 -110 92 -210 23 -72 28 -102 27 -195 0 -92 -4 -124 -27 -195 -32 -99 -63
-165 -101 -209 -14 -18 -24 -34 -22 -36 2 -3 28 7 56 21 47 23 142 114 142
135 0 5 5 9 10 9 25 0 5 -65 -33 -107 -40 -45 -7 -34 44 13 61 57 114 158 124
237 9 69 14 87 27 87 7 0 9 -30 6 -92 -4 -75 -10 -103 -32 -146 -15 -30 -25
-56 -23 -59 11 -10 68 75 85 127 10 30 23 55 28 55 5 0 12 -31 16 -69 11 -114
37 -209 79 -297 35 -71 42 -98 50 -179 13 -143 16 -132 -38 -128 -42 3 -47 6
-57 34 -17 48 -54 92 -100 119 -80 47 -308 64 -981 72 -599 7 -1099 -14 -1231
-52 -64 -18 -128 -78 -145 -134 -12 -40 -13 -41 -56 -41 l-43 0 0 38 c0 100
21 203 56 272 42 84 69 186 79 298 4 45 10 82 14 82 4 0 13 -21 20 -47 32
-122 36 -113 37 74 1 183 14 272 43 281 11 4 12 -2 8 -24 -4 -16 -9 -76 -13
-134 -10 -160 22 -264 107 -349 41 -40 132 -101 153 -101 6 0 -16 23 -47 51
-52 46 -98 109 -81 109 4 0 33 -25 65 -55 57 -55 126 -94 163 -95 14 0 11 6
-15 23 -48 33 -94 97 -119 169 -26 76 -38 263 -21 351 15 83 50 197 60 197 5
0 12 -30 16 -67 10 -97 49 -244 86 -324 38 -82 63 -110 51 -58 -4 19 -7 99 -7
179 1 117 5 162 24 232 28 109 63 197 105 262 59 92 197 209 321 274 116 60
274 77 388 42z m-5 -1477 c94 -3 172 -9 172 -13 0 -4 -17 -12 -37 -18 -43 -13
-105 -69 -122 -109 l-11 -28 -165 0 -164 0 -14 37 c-16 40 -81 93 -128 103
-30 7 -38 20 -16 28 18 8 287 8 485 0z m-584 -33 c188 -22 245 -81 224 -233
-19 -146 -91 -273 -199 -352 -97 -72 -135 -80 -354 -80 -267 0 -386 28 -443
103 -27 35 -27 37 -26 196 1 185 11 232 60 286 43 48 95 68 199 79 116 12 436
12 539 1z m1461 -10 c68 -14 125 -55 152 -110 17 -35 24 -77 33 -183 6 -77 8
-155 4 -175 -25 -143 -138 -187 -485 -187 l-195 0 -75 37 c-82 41 -165 119
-212 199 -32 55 -67 184 -67 248 0 26 8 62 19 81 25 47 106 89 197 100 88 11
563 4 629 -10z"></path>
</g>
</svg>